<mxfile host="app.diagrams.net" modified="2023-08-08T14:19:24.940Z" agent="Mozilla/5.0 (Windows NT 10.0; Win64; x64) AppleWebKit/537.36 (KHTML, like Gecko) Chrome/115.0.0.0 Safari/537.36" etag="VcD4dWGKPdW296SaXvNG" version="21.6.6" type="device">
  <diagram name="Seite-1" id="-i8HaUzraYjkHa6tVGvx">
    <mxGraphModel dx="2261" dy="828" grid="1" gridSize="10" guides="1" tooltips="1" connect="1" arrows="1" fold="1" page="1" pageScale="1" pageWidth="827" pageHeight="1169" math="0" shadow="0">
      <root>
        <mxCell id="0" />
        <mxCell id="1" parent="0" />
        <mxCell id="fEvvzusc2KXiNzdywX1L-124" value="" style="rounded=0;whiteSpace=wrap;html=1;fillColor=#DAE8FC20;strokeColor=#6c8ebf;fillStyle=solid;movable=0;resizable=0;rotatable=0;deletable=0;editable=0;locked=1;connectable=0;" parent="1" vertex="1">
          <mxGeometry x="-60" y="560" width="1780" height="500" as="geometry" />
        </mxCell>
        <mxCell id="fEvvzusc2KXiNzdywX1L-173" style="edgeStyle=orthogonalEdgeStyle;shape=connector;rounded=0;jumpStyle=gap;orthogonalLoop=1;jettySize=auto;html=1;exitX=0;exitY=0.25;exitDx=0;exitDy=0;labelBackgroundColor=default;strokeColor=#FF8000;fontFamily=Helvetica;fontSize=11;fontColor=default;endArrow=classic;entryX=0;entryY=0.25;entryDx=0;entryDy=0;" parent="1" target="fEvvzusc2KXiNzdywX1L-138" edge="1">
          <mxGeometry relative="1" as="geometry">
            <mxPoint x="1020" y="690" as="sourcePoint" />
            <Array as="points">
              <mxPoint x="1020" y="930" />
            </Array>
          </mxGeometry>
        </mxCell>
        <mxCell id="fEvvzusc2KXiNzdywX1L-174" style="edgeStyle=orthogonalEdgeStyle;shape=connector;rounded=0;jumpStyle=gap;orthogonalLoop=1;jettySize=auto;html=1;exitX=1;exitY=0.25;exitDx=0;exitDy=0;labelBackgroundColor=default;strokeColor=#FF8000;fontFamily=Helvetica;fontSize=11;fontColor=default;endArrow=none;endFill=0;" parent="1" source="fEvvzusc2KXiNzdywX1L-133" edge="1">
          <mxGeometry relative="1" as="geometry">
            <mxPoint x="900" y="690" as="targetPoint" />
          </mxGeometry>
        </mxCell>
        <mxCell id="fEvvzusc2KXiNzdywX1L-123" value="" style="rounded=0;whiteSpace=wrap;html=1;fillStyle=solid;fillColor=#FFF2CC20;movable=0;resizable=0;rotatable=0;deletable=0;editable=0;locked=1;connectable=0;strokeColor=#d6b656;" parent="1" vertex="1">
          <mxGeometry x="220" y="300" width="1240" height="260" as="geometry" />
        </mxCell>
        <mxCell id="fEvvzusc2KXiNzdywX1L-25" value="" style="edgeStyle=orthogonalEdgeStyle;rounded=0;orthogonalLoop=1;jettySize=auto;html=1;" parent="1" source="fEvvzusc2KXiNzdywX1L-1" target="fEvvzusc2KXiNzdywX1L-30" edge="1">
          <mxGeometry relative="1" as="geometry">
            <mxPoint x="479.9999999999998" y="420.0000000000001" as="targetPoint" />
          </mxGeometry>
        </mxCell>
        <mxCell id="fEvvzusc2KXiNzdywX1L-1" value="" style="ellipse;whiteSpace=wrap;html=1;fontSize=40;" parent="1" vertex="1">
          <mxGeometry x="360" y="400" width="40" height="40" as="geometry" />
        </mxCell>
        <mxCell id="fEvvzusc2KXiNzdywX1L-21" value="" style="edgeStyle=orthogonalEdgeStyle;rounded=0;orthogonalLoop=1;jettySize=auto;html=1;" parent="1" target="fEvvzusc2KXiNzdywX1L-1" edge="1">
          <mxGeometry relative="1" as="geometry">
            <mxPoint x="280" y="419.66" as="sourcePoint" />
            <mxPoint x="359.9999999999998" y="419.66000000000014" as="targetPoint" />
          </mxGeometry>
        </mxCell>
        <mxCell id="fEvvzusc2KXiNzdywX1L-22" value="Post" style="text;html=1;align=center;verticalAlign=middle;resizable=0;points=[];autosize=1;strokeColor=none;fillColor=none;" parent="1" vertex="1">
          <mxGeometry x="235" y="370" width="50" height="30" as="geometry" />
        </mxCell>
        <mxCell id="fEvvzusc2KXiNzdywX1L-31" style="edgeStyle=orthogonalEdgeStyle;rounded=0;orthogonalLoop=1;jettySize=auto;html=1;entryX=0;entryY=0.75;entryDx=0;entryDy=0;strokeColor=#00CC00;" parent="1" source="fEvvzusc2KXiNzdywX1L-26" target="fEvvzusc2KXiNzdywX1L-30" edge="1">
          <mxGeometry relative="1" as="geometry">
            <Array as="points">
              <mxPoint x="440" y="500" />
              <mxPoint x="440" y="430" />
            </Array>
          </mxGeometry>
        </mxCell>
        <mxCell id="fEvvzusc2KXiNzdywX1L-62" style="edgeStyle=orthogonalEdgeStyle;rounded=0;orthogonalLoop=1;jettySize=auto;html=1;entryX=0;entryY=0.25;entryDx=0;entryDy=0;strokeColor=#00CC00;" parent="1" source="fEvvzusc2KXiNzdywX1L-26" target="fEvvzusc2KXiNzdywX1L-60" edge="1">
          <mxGeometry relative="1" as="geometry">
            <Array as="points">
              <mxPoint x="440" y="500" />
              <mxPoint x="440" y="690" />
            </Array>
          </mxGeometry>
        </mxCell>
        <mxCell id="fEvvzusc2KXiNzdywX1L-128" style="edgeStyle=orthogonalEdgeStyle;rounded=0;orthogonalLoop=1;jettySize=auto;html=1;entryX=0;entryY=0.25;entryDx=0;entryDy=0;strokeColor=#00CC00;" parent="1" target="fEvvzusc2KXiNzdywX1L-127" edge="1">
          <mxGeometry relative="1" as="geometry">
            <mxPoint x="440" y="690" as="sourcePoint" />
            <Array as="points">
              <mxPoint x="440" y="930" />
            </Array>
          </mxGeometry>
        </mxCell>
        <mxCell id="fEvvzusc2KXiNzdywX1L-26" value="•" style="ellipse;whiteSpace=wrap;html=1;fontSize=40;fillColor=#00CC00;" parent="1" vertex="1">
          <mxGeometry x="520" y="480" width="40" height="40" as="geometry" />
        </mxCell>
        <mxCell id="fEvvzusc2KXiNzdywX1L-34" style="edgeStyle=orthogonalEdgeStyle;rounded=0;orthogonalLoop=1;jettySize=auto;html=1;entryX=0;entryY=0.5;entryDx=0;entryDy=0;" parent="1" source="fEvvzusc2KXiNzdywX1L-30" target="fEvvzusc2KXiNzdywX1L-33" edge="1">
          <mxGeometry relative="1" as="geometry" />
        </mxCell>
        <mxCell id="fEvvzusc2KXiNzdywX1L-30" value="lock(Lock)" style="rounded=0;whiteSpace=wrap;html=1;strokeColor=#00CC00;" parent="1" vertex="1">
          <mxGeometry x="480" y="400" width="80" height="40" as="geometry" />
        </mxCell>
        <mxCell id="fEvvzusc2KXiNzdywX1L-37" style="edgeStyle=orthogonalEdgeStyle;rounded=0;orthogonalLoop=1;jettySize=auto;html=1;" parent="1" source="fEvvzusc2KXiNzdywX1L-33" target="fEvvzusc2KXiNzdywX1L-36" edge="1">
          <mxGeometry relative="1" as="geometry" />
        </mxCell>
        <mxCell id="fEvvzusc2KXiNzdywX1L-33" value="" style="ellipse;whiteSpace=wrap;html=1;fontSize=40;" parent="1" vertex="1">
          <mxGeometry x="640" y="400" width="40" height="40" as="geometry" />
        </mxCell>
        <mxCell id="fEvvzusc2KXiNzdywX1L-35" value="•" style="ellipse;shape=doubleEllipse;whiteSpace=wrap;html=1;aspect=fixed;direction=south;fontSize=40;" parent="1" vertex="1">
          <mxGeometry x="240" y="400" width="40" height="40" as="geometry" />
        </mxCell>
        <mxCell id="fEvvzusc2KXiNzdywX1L-39" style="edgeStyle=orthogonalEdgeStyle;rounded=0;orthogonalLoop=1;jettySize=auto;html=1;strokeColor=#FF8000;" parent="1" source="fEvvzusc2KXiNzdywX1L-36" target="fEvvzusc2KXiNzdywX1L-38" edge="1">
          <mxGeometry relative="1" as="geometry">
            <Array as="points">
              <mxPoint x="900" y="430" />
            </Array>
          </mxGeometry>
        </mxCell>
        <mxCell id="fEvvzusc2KXiNzdywX1L-44" style="edgeStyle=orthogonalEdgeStyle;rounded=0;orthogonalLoop=1;jettySize=auto;html=1;" parent="1" source="fEvvzusc2KXiNzdywX1L-36" target="fEvvzusc2KXiNzdywX1L-43" edge="1">
          <mxGeometry relative="1" as="geometry" />
        </mxCell>
        <mxCell id="fEvvzusc2KXiNzdywX1L-36" value="Count++" style="rounded=0;whiteSpace=wrap;html=1;strokeColor=#FF8000;" parent="1" vertex="1">
          <mxGeometry x="760" y="400" width="80" height="40" as="geometry" />
        </mxCell>
        <mxCell id="fEvvzusc2KXiNzdywX1L-67" style="edgeStyle=orthogonalEdgeStyle;rounded=0;orthogonalLoop=1;jettySize=auto;html=1;entryX=0;entryY=0.25;entryDx=0;entryDy=0;jumpStyle=gap;strokeColor=#FF8000;" parent="1" source="fEvvzusc2KXiNzdywX1L-38" target="fEvvzusc2KXiNzdywX1L-65" edge="1">
          <mxGeometry relative="1" as="geometry" />
        </mxCell>
        <mxCell id="fEvvzusc2KXiNzdywX1L-75" style="edgeStyle=orthogonalEdgeStyle;rounded=0;orthogonalLoop=1;jettySize=auto;html=1;exitX=0;exitY=0.5;exitDx=0;exitDy=0;entryX=0;entryY=0.25;entryDx=0;entryDy=0;jumpStyle=gap;strokeColor=#FF8000;" parent="1" source="fEvvzusc2KXiNzdywX1L-38" target="fEvvzusc2KXiNzdywX1L-70" edge="1">
          <mxGeometry relative="1" as="geometry">
            <Array as="points">
              <mxPoint x="1020" y="500" />
              <mxPoint x="1020" y="690" />
            </Array>
          </mxGeometry>
        </mxCell>
        <mxCell id="fEvvzusc2KXiNzdywX1L-134" style="edgeStyle=orthogonalEdgeStyle;rounded=0;orthogonalLoop=1;jettySize=auto;html=1;entryX=0;entryY=0.25;entryDx=0;entryDy=0;jumpStyle=gap;strokeColor=#FF8000;" parent="1" target="fEvvzusc2KXiNzdywX1L-133" edge="1">
          <mxGeometry relative="1" as="geometry">
            <mxPoint x="740" y="690" as="sourcePoint" />
            <Array as="points">
              <mxPoint x="740" y="930" />
            </Array>
          </mxGeometry>
        </mxCell>
        <mxCell id="fEvvzusc2KXiNzdywX1L-38" value="" style="ellipse;whiteSpace=wrap;html=1;fontSize=40;fillColor=#FF8000;" parent="1" vertex="1">
          <mxGeometry x="880" y="480" width="40" height="40" as="geometry" />
        </mxCell>
        <mxCell id="fEvvzusc2KXiNzdywX1L-40" value="Lock" style="text;html=1;align=center;verticalAlign=middle;resizable=0;points=[];autosize=1;strokeColor=none;fillColor=none;" parent="1" vertex="1">
          <mxGeometry x="355" y="450" width="50" height="30" as="geometry" />
        </mxCell>
        <mxCell id="fEvvzusc2KXiNzdywX1L-41" value="Count" style="text;html=1;align=center;verticalAlign=middle;resizable=0;points=[];autosize=1;strokeColor=none;fillColor=none;" parent="1" vertex="1">
          <mxGeometry x="910" y="470" width="60" height="30" as="geometry" />
        </mxCell>
        <mxCell id="fEvvzusc2KXiNzdywX1L-96" style="edgeStyle=orthogonalEdgeStyle;rounded=0;orthogonalLoop=1;jettySize=auto;html=1;entryX=0;entryY=0.5;entryDx=0;entryDy=0;" parent="1" source="fEvvzusc2KXiNzdywX1L-43" target="fEvvzusc2KXiNzdywX1L-95" edge="1">
          <mxGeometry relative="1" as="geometry" />
        </mxCell>
        <mxCell id="fEvvzusc2KXiNzdywX1L-43" value="" style="ellipse;whiteSpace=wrap;html=1;fontSize=40;" parent="1" vertex="1">
          <mxGeometry x="920" y="400" width="40" height="40" as="geometry" />
        </mxCell>
        <mxCell id="fEvvzusc2KXiNzdywX1L-47" style="edgeStyle=orthogonalEdgeStyle;rounded=0;orthogonalLoop=1;jettySize=auto;html=1;entryX=0.5;entryY=1;entryDx=0;entryDy=0;jumpStyle=gap;strokeColor=#00CC00;" parent="1" source="fEvvzusc2KXiNzdywX1L-45" target="fEvvzusc2KXiNzdywX1L-26" edge="1">
          <mxGeometry relative="1" as="geometry">
            <mxPoint x="1020" y="560" as="targetPoint" />
            <Array as="points">
              <mxPoint x="1420" y="340" />
              <mxPoint x="1420" y="540" />
              <mxPoint x="540" y="540" />
            </Array>
          </mxGeometry>
        </mxCell>
        <mxCell id="fEvvzusc2KXiNzdywX1L-45" value="unlock(Lock)" style="rounded=0;whiteSpace=wrap;html=1;strokeColor=#00CC00;" parent="1" vertex="1">
          <mxGeometry x="1320" y="320" width="80" height="40" as="geometry" />
        </mxCell>
        <mxCell id="fEvvzusc2KXiNzdywX1L-50" value="•" style="ellipse;shape=doubleEllipse;whiteSpace=wrap;html=1;aspect=fixed;direction=south;fontSize=40;" parent="1" vertex="1">
          <mxGeometry x="-40" y="680" width="40" height="40" as="geometry" />
        </mxCell>
        <mxCell id="fEvvzusc2KXiNzdywX1L-51" value="Wait" style="text;html=1;align=center;verticalAlign=middle;resizable=0;points=[];autosize=1;strokeColor=none;fillColor=none;" parent="1" vertex="1">
          <mxGeometry x="-45" y="650" width="50" height="30" as="geometry" />
        </mxCell>
        <mxCell id="fEvvzusc2KXiNzdywX1L-52" value="" style="edgeStyle=orthogonalEdgeStyle;rounded=0;orthogonalLoop=1;jettySize=auto;html=1;" parent="1" source="fEvvzusc2KXiNzdywX1L-50" target="fEvvzusc2KXiNzdywX1L-53" edge="1">
          <mxGeometry relative="1" as="geometry">
            <mxPoint y="699.57" as="sourcePoint" />
            <mxPoint x="80" y="699.9100000000001" as="targetPoint" />
          </mxGeometry>
        </mxCell>
        <mxCell id="fEvvzusc2KXiNzdywX1L-55" style="edgeStyle=orthogonalEdgeStyle;rounded=0;orthogonalLoop=1;jettySize=auto;html=1;entryX=0;entryY=0.5;entryDx=0;entryDy=0;" parent="1" source="fEvvzusc2KXiNzdywX1L-53" target="fEvvzusc2KXiNzdywX1L-54" edge="1">
          <mxGeometry relative="1" as="geometry" />
        </mxCell>
        <mxCell id="fEvvzusc2KXiNzdywX1L-53" value="" style="ellipse;whiteSpace=wrap;html=1;fontSize=40;" parent="1" vertex="1">
          <mxGeometry x="80" y="680" width="40" height="40" as="geometry" />
        </mxCell>
        <mxCell id="fEvvzusc2KXiNzdywX1L-59" style="edgeStyle=orthogonalEdgeStyle;rounded=0;orthogonalLoop=1;jettySize=auto;html=1;" parent="1" source="fEvvzusc2KXiNzdywX1L-54" target="fEvvzusc2KXiNzdywX1L-58" edge="1">
          <mxGeometry relative="1" as="geometry" />
        </mxCell>
        <mxCell id="fEvvzusc2KXiNzdywX1L-54" value="lock(Gate)" style="rounded=0;whiteSpace=wrap;html=1;strokeColor=#0000FF;" parent="1" vertex="1">
          <mxGeometry x="200" y="680" width="80" height="40" as="geometry" />
        </mxCell>
        <mxCell id="fEvvzusc2KXiNzdywX1L-57" style="edgeStyle=orthogonalEdgeStyle;rounded=0;orthogonalLoop=1;jettySize=auto;html=1;entryX=0;entryY=0.25;entryDx=0;entryDy=0;strokeColor=#0000FF;" parent="1" source="fEvvzusc2KXiNzdywX1L-48" target="fEvvzusc2KXiNzdywX1L-54" edge="1">
          <mxGeometry relative="1" as="geometry" />
        </mxCell>
        <mxCell id="fEvvzusc2KXiNzdywX1L-61" style="edgeStyle=orthogonalEdgeStyle;rounded=0;orthogonalLoop=1;jettySize=auto;html=1;jumpStyle=gap;" parent="1" source="fEvvzusc2KXiNzdywX1L-58" target="fEvvzusc2KXiNzdywX1L-60" edge="1">
          <mxGeometry relative="1" as="geometry" />
        </mxCell>
        <mxCell id="fEvvzusc2KXiNzdywX1L-58" value="" style="ellipse;whiteSpace=wrap;html=1;fontSize=40;" parent="1" vertex="1">
          <mxGeometry x="360" y="680" width="40" height="40" as="geometry" />
        </mxCell>
        <mxCell id="fEvvzusc2KXiNzdywX1L-64" style="edgeStyle=orthogonalEdgeStyle;rounded=0;orthogonalLoop=1;jettySize=auto;html=1;" parent="1" source="fEvvzusc2KXiNzdywX1L-60" target="fEvvzusc2KXiNzdywX1L-63" edge="1">
          <mxGeometry relative="1" as="geometry" />
        </mxCell>
        <mxCell id="fEvvzusc2KXiNzdywX1L-60" value="lock(Lock)" style="rounded=0;whiteSpace=wrap;html=1;strokeColor=#00CC00;" parent="1" vertex="1">
          <mxGeometry x="480" y="680" width="80" height="40" as="geometry" />
        </mxCell>
        <mxCell id="fEvvzusc2KXiNzdywX1L-66" style="edgeStyle=orthogonalEdgeStyle;rounded=0;orthogonalLoop=1;jettySize=auto;html=1;entryX=0;entryY=0.5;entryDx=0;entryDy=0;jumpStyle=gap;" parent="1" source="fEvvzusc2KXiNzdywX1L-63" target="fEvvzusc2KXiNzdywX1L-65" edge="1">
          <mxGeometry relative="1" as="geometry" />
        </mxCell>
        <mxCell id="fEvvzusc2KXiNzdywX1L-83" style="edgeStyle=orthogonalEdgeStyle;rounded=0;orthogonalLoop=1;jettySize=auto;html=1;entryX=0;entryY=0.5;entryDx=0;entryDy=0;jumpStyle=gap;" parent="1" source="fEvvzusc2KXiNzdywX1L-63" target="fEvvzusc2KXiNzdywX1L-73" edge="1">
          <mxGeometry relative="1" as="geometry" />
        </mxCell>
        <mxCell id="fEvvzusc2KXiNzdywX1L-63" value="" style="ellipse;whiteSpace=wrap;html=1;fontSize=40;" parent="1" vertex="1">
          <mxGeometry x="640" y="680" width="40" height="40" as="geometry" />
        </mxCell>
        <mxCell id="fEvvzusc2KXiNzdywX1L-69" style="edgeStyle=orthogonalEdgeStyle;rounded=0;orthogonalLoop=1;jettySize=auto;html=1;jumpStyle=gap;" parent="1" source="fEvvzusc2KXiNzdywX1L-65" target="fEvvzusc2KXiNzdywX1L-68" edge="1">
          <mxGeometry relative="1" as="geometry" />
        </mxCell>
        <mxCell id="fEvvzusc2KXiNzdywX1L-74" style="edgeStyle=orthogonalEdgeStyle;rounded=0;orthogonalLoop=1;jettySize=auto;html=1;entryX=0.5;entryY=1;entryDx=0;entryDy=0;jumpStyle=gap;strokeColor=#FF8000;" parent="1" source="fEvvzusc2KXiNzdywX1L-65" target="fEvvzusc2KXiNzdywX1L-38" edge="1">
          <mxGeometry relative="1" as="geometry">
            <Array as="points">
              <mxPoint x="900" y="690" />
            </Array>
          </mxGeometry>
        </mxCell>
        <mxCell id="fEvvzusc2KXiNzdywX1L-65" value="Count &amp;gt; 0" style="rounded=0;whiteSpace=wrap;html=1;strokeColor=#FF8000;" parent="1" vertex="1">
          <mxGeometry x="760" y="680" width="80" height="40" as="geometry" />
        </mxCell>
        <mxCell id="fEvvzusc2KXiNzdywX1L-71" style="edgeStyle=orthogonalEdgeStyle;rounded=0;orthogonalLoop=1;jettySize=auto;html=1;entryX=0;entryY=0.5;entryDx=0;entryDy=0;" parent="1" source="fEvvzusc2KXiNzdywX1L-68" target="fEvvzusc2KXiNzdywX1L-70" edge="1">
          <mxGeometry relative="1" as="geometry" />
        </mxCell>
        <mxCell id="fEvvzusc2KXiNzdywX1L-68" value="" style="ellipse;whiteSpace=wrap;html=1;fontSize=40;" parent="1" vertex="1">
          <mxGeometry x="920" y="680" width="40" height="40" as="geometry" />
        </mxCell>
        <mxCell id="fEvvzusc2KXiNzdywX1L-77" style="edgeStyle=orthogonalEdgeStyle;rounded=0;orthogonalLoop=1;jettySize=auto;html=1;entryX=0;entryY=0.5;entryDx=0;entryDy=0;" parent="1" source="fEvvzusc2KXiNzdywX1L-70" target="fEvvzusc2KXiNzdywX1L-76" edge="1">
          <mxGeometry relative="1" as="geometry" />
        </mxCell>
        <mxCell id="fEvvzusc2KXiNzdywX1L-70" value="Count--" style="rounded=0;whiteSpace=wrap;html=1;strokeColor=#FF8000;" parent="1" vertex="1">
          <mxGeometry x="1040" y="680" width="80" height="40" as="geometry" />
        </mxCell>
        <mxCell id="fEvvzusc2KXiNzdywX1L-107" style="edgeStyle=orthogonalEdgeStyle;rounded=0;orthogonalLoop=1;jettySize=auto;html=1;entryX=1;entryY=0.5;entryDx=0;entryDy=0;jumpStyle=gap;strokeColor=#CC00CC;" parent="1" source="fEvvzusc2KXiNzdywX1L-143" target="fEvvzusc2KXiNzdywX1L-91" edge="1">
          <mxGeometry relative="1" as="geometry">
            <Array as="points">
              <mxPoint x="1140" y="780" />
              <mxPoint x="1140" y="500" />
            </Array>
          </mxGeometry>
        </mxCell>
        <mxCell id="fEvvzusc2KXiNzdywX1L-109" style="edgeStyle=orthogonalEdgeStyle;rounded=0;orthogonalLoop=1;jettySize=auto;html=1;jumpStyle=gap;" parent="1" source="fEvvzusc2KXiNzdywX1L-73" target="fEvvzusc2KXiNzdywX1L-108" edge="1">
          <mxGeometry relative="1" as="geometry">
            <Array as="points">
              <mxPoint x="890" y="790" />
              <mxPoint x="890" y="860" />
            </Array>
          </mxGeometry>
        </mxCell>
        <mxCell id="fEvvzusc2KXiNzdywX1L-146" style="edgeStyle=orthogonalEdgeStyle;shape=connector;rounded=0;jumpStyle=gap;orthogonalLoop=1;jettySize=auto;html=1;exitX=1;exitY=0.5;exitDx=0;exitDy=0;entryX=0;entryY=0.5;entryDx=0;entryDy=0;labelBackgroundColor=default;strokeColor=default;fontFamily=Helvetica;fontSize=11;fontColor=default;endArrow=classic;" parent="1" source="fEvvzusc2KXiNzdywX1L-147" target="fEvvzusc2KXiNzdywX1L-143" edge="1">
          <mxGeometry relative="1" as="geometry" />
        </mxCell>
        <mxCell id="fEvvzusc2KXiNzdywX1L-73" value="Count = 0" style="rounded=0;whiteSpace=wrap;html=1;strokeColor=#FF8000;" parent="1" vertex="1">
          <mxGeometry x="760" y="760" width="80" height="40" as="geometry" />
        </mxCell>
        <mxCell id="fEvvzusc2KXiNzdywX1L-79" style="edgeStyle=orthogonalEdgeStyle;rounded=0;orthogonalLoop=1;jettySize=auto;html=1;" parent="1" source="fEvvzusc2KXiNzdywX1L-76" target="fEvvzusc2KXiNzdywX1L-78" edge="1">
          <mxGeometry relative="1" as="geometry" />
        </mxCell>
        <mxCell id="fEvvzusc2KXiNzdywX1L-76" value="" style="ellipse;whiteSpace=wrap;html=1;fontSize=40;" parent="1" vertex="1">
          <mxGeometry x="1200.5" y="680" width="40" height="40" as="geometry" />
        </mxCell>
        <mxCell id="fEvvzusc2KXiNzdywX1L-82" style="edgeStyle=orthogonalEdgeStyle;rounded=0;orthogonalLoop=1;jettySize=auto;html=1;endArrow=none;endFill=0;strokeColor=#00CC00;" parent="1" source="fEvvzusc2KXiNzdywX1L-78" edge="1">
          <mxGeometry relative="1" as="geometry">
            <mxPoint x="1420" y="540" as="targetPoint" />
            <Array as="points">
              <mxPoint x="1420" y="690" />
            </Array>
          </mxGeometry>
        </mxCell>
        <mxCell id="fEvvzusc2KXiNzdywX1L-85" style="edgeStyle=orthogonalEdgeStyle;rounded=0;orthogonalLoop=1;jettySize=auto;html=1;entryX=0;entryY=0.5;entryDx=0;entryDy=0;" parent="1" source="fEvvzusc2KXiNzdywX1L-153" target="fEvvzusc2KXiNzdywX1L-84" edge="1">
          <mxGeometry relative="1" as="geometry" />
        </mxCell>
        <mxCell id="fEvvzusc2KXiNzdywX1L-78" value="unlock(Lock)" style="rounded=0;whiteSpace=wrap;html=1;strokeColor=#00CC00;" parent="1" vertex="1">
          <mxGeometry x="1320" y="680" width="80" height="40" as="geometry" />
        </mxCell>
        <mxCell id="fEvvzusc2KXiNzdywX1L-88" style="edgeStyle=orthogonalEdgeStyle;rounded=0;orthogonalLoop=1;jettySize=auto;html=1;entryX=0.5;entryY=0;entryDx=0;entryDy=0;jumpStyle=gap;strokeColor=#0000FF;" parent="1" source="fEvvzusc2KXiNzdywX1L-84" target="fEvvzusc2KXiNzdywX1L-48" edge="1">
          <mxGeometry relative="1" as="geometry">
            <mxPoint x="750" y="640" as="targetPoint" />
            <Array as="points">
              <mxPoint x="1700" y="700" />
              <mxPoint x="1700" y="580" />
              <mxPoint x="95" y="580" />
            </Array>
          </mxGeometry>
        </mxCell>
        <mxCell id="fEvvzusc2KXiNzdywX1L-84" value="unlock(Gate)" style="rounded=0;whiteSpace=wrap;html=1;strokeColor=#0000FF;" parent="1" vertex="1">
          <mxGeometry x="1600" y="680" width="80" height="40" as="geometry" />
        </mxCell>
        <mxCell id="fEvvzusc2KXiNzdywX1L-48" value="•" style="ellipse;whiteSpace=wrap;html=1;fontSize=40;strokeColor=#000000;fillColor=#0000FF;" parent="1" vertex="1">
          <mxGeometry x="75" y="600" width="40" height="40" as="geometry" />
        </mxCell>
        <mxCell id="fEvvzusc2KXiNzdywX1L-49" value="Gate" style="text;html=1;align=center;verticalAlign=middle;resizable=0;points=[];autosize=1;strokeColor=none;fillColor=none;" parent="1" vertex="1">
          <mxGeometry x="25" y="605" width="50" height="30" as="geometry" />
        </mxCell>
        <mxCell id="fEvvzusc2KXiNzdywX1L-90" value="" style="edgeStyle=orthogonalEdgeStyle;rounded=0;orthogonalLoop=1;jettySize=auto;html=1;entryX=0;entryY=0.5;entryDx=0;entryDy=0;" parent="1" source="fEvvzusc2KXiNzdywX1L-43" target="fEvvzusc2KXiNzdywX1L-89" edge="1">
          <mxGeometry relative="1" as="geometry">
            <mxPoint x="960" y="420" as="sourcePoint" />
            <mxPoint x="1201" y="420" as="targetPoint" />
          </mxGeometry>
        </mxCell>
        <mxCell id="fEvvzusc2KXiNzdywX1L-103" style="edgeStyle=orthogonalEdgeStyle;rounded=0;orthogonalLoop=1;jettySize=auto;html=1;strokeColor=#33FFFF;jumpStyle=gap;" parent="1" source="fEvvzusc2KXiNzdywX1L-89" target="fEvvzusc2KXiNzdywX1L-101" edge="1">
          <mxGeometry relative="1" as="geometry">
            <Array as="points">
              <mxPoint x="1220" y="410" />
            </Array>
          </mxGeometry>
        </mxCell>
        <mxCell id="fEvvzusc2KXiNzdywX1L-105" style="edgeStyle=orthogonalEdgeStyle;rounded=0;orthogonalLoop=1;jettySize=auto;html=1;jumpStyle=gap;" parent="1" source="fEvvzusc2KXiNzdywX1L-89" target="fEvvzusc2KXiNzdywX1L-104" edge="1">
          <mxGeometry relative="1" as="geometry" />
        </mxCell>
        <mxCell id="fEvvzusc2KXiNzdywX1L-175" style="edgeStyle=orthogonalEdgeStyle;shape=connector;rounded=0;jumpStyle=gap;orthogonalLoop=1;jettySize=auto;html=1;exitX=1;exitY=0.75;exitDx=0;exitDy=0;labelBackgroundColor=default;strokeColor=#CC00CC;fontFamily=Helvetica;fontSize=11;fontColor=default;endArrow=none;endFill=0;" parent="1" source="fEvvzusc2KXiNzdywX1L-89" edge="1">
          <mxGeometry relative="1" as="geometry">
            <mxPoint x="1140" y="500" as="targetPoint" />
          </mxGeometry>
        </mxCell>
        <mxCell id="fEvvzusc2KXiNzdywX1L-89" value="Waiting = 1" style="rounded=0;whiteSpace=wrap;html=1;strokeColor=#CC00CC;" parent="1" vertex="1">
          <mxGeometry x="1040" y="400" width="80" height="40" as="geometry" />
        </mxCell>
        <mxCell id="fEvvzusc2KXiNzdywX1L-97" style="edgeStyle=orthogonalEdgeStyle;rounded=0;orthogonalLoop=1;jettySize=auto;html=1;entryX=0;entryY=0.75;entryDx=0;entryDy=0;strokeColor=#CC00CC;" parent="1" source="fEvvzusc2KXiNzdywX1L-91" target="fEvvzusc2KXiNzdywX1L-89" edge="1">
          <mxGeometry relative="1" as="geometry" />
        </mxCell>
        <mxCell id="fEvvzusc2KXiNzdywX1L-151" style="edgeStyle=orthogonalEdgeStyle;shape=connector;rounded=0;jumpStyle=gap;orthogonalLoop=1;jettySize=auto;html=1;exitX=0.5;exitY=1;exitDx=0;exitDy=0;entryX=0;entryY=0.25;entryDx=0;entryDy=0;labelBackgroundColor=default;strokeColor=#CC00CC;fontFamily=Helvetica;fontSize=11;fontColor=default;endArrow=classic;" parent="1" source="fEvvzusc2KXiNzdywX1L-91" target="fEvvzusc2KXiNzdywX1L-149" edge="1">
          <mxGeometry relative="1" as="geometry">
            <Array as="points">
              <mxPoint x="1100" y="570" />
              <mxPoint x="1270" y="570" />
              <mxPoint x="1270" y="930" />
            </Array>
          </mxGeometry>
        </mxCell>
        <mxCell id="fEvvzusc2KXiNzdywX1L-91" value="" style="ellipse;whiteSpace=wrap;html=1;fontSize=40;fillColor=#CC00CC;" parent="1" vertex="1">
          <mxGeometry x="1080" y="480" width="40" height="40" as="geometry" />
        </mxCell>
        <mxCell id="fEvvzusc2KXiNzdywX1L-93" value="Waiting" style="text;html=1;align=center;verticalAlign=middle;resizable=0;points=[];autosize=1;strokeColor=none;fillColor=none;" parent="1" vertex="1">
          <mxGeometry x="1030" y="460" width="60" height="30" as="geometry" />
        </mxCell>
        <mxCell id="fEvvzusc2KXiNzdywX1L-99" style="edgeStyle=orthogonalEdgeStyle;rounded=0;orthogonalLoop=1;jettySize=auto;html=1;" parent="1" source="fEvvzusc2KXiNzdywX1L-95" target="fEvvzusc2KXiNzdywX1L-98" edge="1">
          <mxGeometry relative="1" as="geometry" />
        </mxCell>
        <mxCell id="fEvvzusc2KXiNzdywX1L-95" value="Waiting = 0" style="rounded=0;whiteSpace=wrap;html=1;strokeColor=#CC00CC;" parent="1" vertex="1">
          <mxGeometry x="1040" y="320" width="80" height="40" as="geometry" />
        </mxCell>
        <mxCell id="fEvvzusc2KXiNzdywX1L-100" style="edgeStyle=orthogonalEdgeStyle;rounded=0;orthogonalLoop=1;jettySize=auto;html=1;entryX=0;entryY=0.5;entryDx=0;entryDy=0;" parent="1" source="fEvvzusc2KXiNzdywX1L-98" target="fEvvzusc2KXiNzdywX1L-45" edge="1">
          <mxGeometry relative="1" as="geometry" />
        </mxCell>
        <mxCell id="fEvvzusc2KXiNzdywX1L-98" value="" style="ellipse;whiteSpace=wrap;html=1;fontSize=40;" parent="1" vertex="1">
          <mxGeometry x="1200.5" y="320" width="40" height="40" as="geometry" />
        </mxCell>
        <mxCell id="fEvvzusc2KXiNzdywX1L-115" style="edgeStyle=orthogonalEdgeStyle;rounded=0;orthogonalLoop=1;jettySize=auto;html=1;entryX=0;entryY=0.25;entryDx=0;entryDy=0;strokeColor=#33FFFF;" parent="1" source="fEvvzusc2KXiNzdywX1L-101" target="fEvvzusc2KXiNzdywX1L-114" edge="1">
          <mxGeometry relative="1" as="geometry" />
        </mxCell>
        <mxCell id="fEvvzusc2KXiNzdywX1L-101" value="" style="ellipse;whiteSpace=wrap;html=1;fontSize=40;fillColor=#33FFFF;" parent="1" vertex="1">
          <mxGeometry x="1200" y="480" width="40" height="40" as="geometry" />
        </mxCell>
        <mxCell id="fEvvzusc2KXiNzdywX1L-102" value="Signal" style="text;html=1;align=center;verticalAlign=middle;resizable=0;points=[];autosize=1;strokeColor=none;fillColor=none;" parent="1" vertex="1">
          <mxGeometry x="1230" y="460" width="60" height="30" as="geometry" />
        </mxCell>
        <mxCell id="fEvvzusc2KXiNzdywX1L-106" style="edgeStyle=orthogonalEdgeStyle;rounded=0;orthogonalLoop=1;jettySize=auto;html=1;entryX=0.5;entryY=1;entryDx=0;entryDy=0;exitX=1;exitY=0.5;exitDx=0;exitDy=0;" parent="1" source="fEvvzusc2KXiNzdywX1L-104" target="fEvvzusc2KXiNzdywX1L-45" edge="1">
          <mxGeometry relative="1" as="geometry" />
        </mxCell>
        <mxCell id="fEvvzusc2KXiNzdywX1L-104" value="" style="ellipse;whiteSpace=wrap;html=1;fontSize=40;" parent="1" vertex="1">
          <mxGeometry x="1280" y="400" width="40" height="40" as="geometry" />
        </mxCell>
        <mxCell id="fEvvzusc2KXiNzdywX1L-112" style="edgeStyle=orthogonalEdgeStyle;rounded=0;orthogonalLoop=1;jettySize=auto;html=1;entryX=0;entryY=0.5;entryDx=0;entryDy=0;jumpStyle=gap;" parent="1" source="fEvvzusc2KXiNzdywX1L-108" target="fEvvzusc2KXiNzdywX1L-111" edge="1">
          <mxGeometry relative="1" as="geometry" />
        </mxCell>
        <mxCell id="fEvvzusc2KXiNzdywX1L-108" value="" style="ellipse;whiteSpace=wrap;html=1;fontSize=40;" parent="1" vertex="1">
          <mxGeometry x="920" y="840" width="40" height="40" as="geometry" />
        </mxCell>
        <mxCell id="fEvvzusc2KXiNzdywX1L-113" style="edgeStyle=orthogonalEdgeStyle;rounded=0;orthogonalLoop=1;jettySize=auto;html=1;jumpStyle=gap;endArrow=none;endFill=0;strokeColor=#00CC00;" parent="1" source="fEvvzusc2KXiNzdywX1L-111" edge="1">
          <mxGeometry relative="1" as="geometry">
            <mxPoint x="1160" y="540" as="targetPoint" />
            <Array as="points">
              <mxPoint x="1160" y="850" />
            </Array>
          </mxGeometry>
        </mxCell>
        <mxCell id="fEvvzusc2KXiNzdywX1L-117" style="edgeStyle=orthogonalEdgeStyle;rounded=0;orthogonalLoop=1;jettySize=auto;html=1;" parent="1" source="fEvvzusc2KXiNzdywX1L-111" target="fEvvzusc2KXiNzdywX1L-116" edge="1">
          <mxGeometry relative="1" as="geometry">
            <Array as="points">
              <mxPoint x="1120" y="860" />
              <mxPoint x="1120" y="860" />
            </Array>
          </mxGeometry>
        </mxCell>
        <mxCell id="fEvvzusc2KXiNzdywX1L-111" value="unlock(Lock)" style="rounded=0;whiteSpace=wrap;html=1;strokeColor=#00CC00;" parent="1" vertex="1">
          <mxGeometry x="1040" y="840" width="80" height="40" as="geometry" />
        </mxCell>
        <mxCell id="fEvvzusc2KXiNzdywX1L-126" style="edgeStyle=orthogonalEdgeStyle;rounded=0;orthogonalLoop=1;jettySize=auto;html=1;entryX=0.5;entryY=0;entryDx=0;entryDy=0;exitX=1;exitY=0.5;exitDx=0;exitDy=0;jumpStyle=gap;strokeColor=#000000;dashed=1;strokeWidth=3;" parent="1" source="fEvvzusc2KXiNzdywX1L-114" target="fEvvzusc2KXiNzdywX1L-125" edge="1">
          <mxGeometry relative="1" as="geometry">
            <Array as="points">
              <mxPoint x="1420" y="860" />
              <mxPoint x="1420" y="900" />
              <mxPoint x="380" y="900" />
            </Array>
          </mxGeometry>
        </mxCell>
        <mxCell id="fEvvzusc2KXiNzdywX1L-114" value="wait(Signal)" style="rounded=0;whiteSpace=wrap;html=1;strokeColor=#33FFFF;" parent="1" vertex="1">
          <mxGeometry x="1320" y="840" width="80" height="40" as="geometry" />
        </mxCell>
        <mxCell id="fEvvzusc2KXiNzdywX1L-118" style="edgeStyle=orthogonalEdgeStyle;rounded=0;orthogonalLoop=1;jettySize=auto;html=1;entryX=0;entryY=0.5;entryDx=0;entryDy=0;strokeColor=#000000;" parent="1" source="fEvvzusc2KXiNzdywX1L-116" target="fEvvzusc2KXiNzdywX1L-114" edge="1">
          <mxGeometry relative="1" as="geometry" />
        </mxCell>
        <mxCell id="fEvvzusc2KXiNzdywX1L-116" value="" style="ellipse;whiteSpace=wrap;html=1;fontSize=40;" parent="1" vertex="1">
          <mxGeometry x="1200" y="840" width="40" height="40" as="geometry" />
        </mxCell>
        <mxCell id="fEvvzusc2KXiNzdywX1L-132" style="edgeStyle=orthogonalEdgeStyle;rounded=0;orthogonalLoop=1;jettySize=auto;html=1;entryX=0;entryY=0.5;entryDx=0;entryDy=0;strokeColor=#000000;dashed=1;strokeWidth=3;" parent="1" source="fEvvzusc2KXiNzdywX1L-125" target="fEvvzusc2KXiNzdywX1L-127" edge="1">
          <mxGeometry relative="1" as="geometry" />
        </mxCell>
        <mxCell id="fEvvzusc2KXiNzdywX1L-125" value="" style="ellipse;whiteSpace=wrap;html=1;fontSize=40;" parent="1" vertex="1">
          <mxGeometry x="360" y="920" width="40" height="40" as="geometry" />
        </mxCell>
        <mxCell id="fEvvzusc2KXiNzdywX1L-130" style="edgeStyle=orthogonalEdgeStyle;rounded=0;orthogonalLoop=1;jettySize=auto;html=1;strokeColor=#000000;dashed=1;strokeWidth=3;" parent="1" source="fEvvzusc2KXiNzdywX1L-127" target="fEvvzusc2KXiNzdywX1L-129" edge="1">
          <mxGeometry relative="1" as="geometry" />
        </mxCell>
        <mxCell id="fEvvzusc2KXiNzdywX1L-127" value="lock(Lock)" style="rounded=0;whiteSpace=wrap;html=1;strokeColor=#00CC00;" parent="1" vertex="1">
          <mxGeometry x="480" y="920" width="80" height="40" as="geometry" />
        </mxCell>
        <mxCell id="fEvvzusc2KXiNzdywX1L-135" style="edgeStyle=orthogonalEdgeStyle;rounded=0;orthogonalLoop=1;jettySize=auto;html=1;" parent="1" source="fEvvzusc2KXiNzdywX1L-129" target="fEvvzusc2KXiNzdywX1L-133" edge="1">
          <mxGeometry relative="1" as="geometry" />
        </mxCell>
        <mxCell id="fEvvzusc2KXiNzdywX1L-167" style="edgeStyle=orthogonalEdgeStyle;shape=connector;rounded=0;jumpStyle=gap;orthogonalLoop=1;jettySize=auto;html=1;entryX=0;entryY=0.5;entryDx=0;entryDy=0;labelBackgroundColor=default;strokeColor=#000000;fontFamily=Helvetica;fontSize=11;fontColor=default;endArrow=classic;dashed=1;strokeWidth=3;" parent="1" source="fEvvzusc2KXiNzdywX1L-129" target="fEvvzusc2KXiNzdywX1L-160" edge="1">
          <mxGeometry relative="1" as="geometry" />
        </mxCell>
        <mxCell id="fEvvzusc2KXiNzdywX1L-129" value="" style="ellipse;whiteSpace=wrap;html=1;fontSize=40;" parent="1" vertex="1">
          <mxGeometry x="640" y="920" width="40" height="40" as="geometry" />
        </mxCell>
        <mxCell id="fEvvzusc2KXiNzdywX1L-137" style="edgeStyle=orthogonalEdgeStyle;shape=connector;rounded=0;jumpStyle=gap;orthogonalLoop=1;jettySize=auto;html=1;labelBackgroundColor=default;strokeColor=default;fontFamily=Helvetica;fontSize=11;fontColor=default;endArrow=classic;" parent="1" source="fEvvzusc2KXiNzdywX1L-133" target="fEvvzusc2KXiNzdywX1L-136" edge="1">
          <mxGeometry relative="1" as="geometry" />
        </mxCell>
        <mxCell id="fEvvzusc2KXiNzdywX1L-133" value="Count &amp;gt; 0" style="rounded=0;whiteSpace=wrap;html=1;strokeColor=#FF8000;" parent="1" vertex="1">
          <mxGeometry x="760" y="920" width="80" height="40" as="geometry" />
        </mxCell>
        <mxCell id="fEvvzusc2KXiNzdywX1L-140" style="edgeStyle=orthogonalEdgeStyle;shape=connector;rounded=0;jumpStyle=gap;orthogonalLoop=1;jettySize=auto;html=1;labelBackgroundColor=default;strokeColor=default;fontFamily=Helvetica;fontSize=11;fontColor=default;endArrow=classic;" parent="1" source="fEvvzusc2KXiNzdywX1L-136" target="fEvvzusc2KXiNzdywX1L-138" edge="1">
          <mxGeometry relative="1" as="geometry">
            <mxPoint x="1040" y="940" as="targetPoint" />
          </mxGeometry>
        </mxCell>
        <mxCell id="fEvvzusc2KXiNzdywX1L-136" value="" style="ellipse;whiteSpace=wrap;html=1;fontSize=40;" parent="1" vertex="1">
          <mxGeometry x="920" y="920" width="40" height="40" as="geometry" />
        </mxCell>
        <mxCell id="fEvvzusc2KXiNzdywX1L-142" style="edgeStyle=orthogonalEdgeStyle;shape=connector;rounded=0;jumpStyle=gap;orthogonalLoop=1;jettySize=auto;html=1;entryX=0;entryY=0.5;entryDx=0;entryDy=0;labelBackgroundColor=default;strokeColor=default;fontFamily=Helvetica;fontSize=11;fontColor=default;endArrow=classic;" parent="1" source="fEvvzusc2KXiNzdywX1L-138" target="fEvvzusc2KXiNzdywX1L-141" edge="1">
          <mxGeometry relative="1" as="geometry" />
        </mxCell>
        <mxCell id="fEvvzusc2KXiNzdywX1L-138" value="Count--" style="rounded=0;whiteSpace=wrap;html=1;strokeColor=#FF8000;" parent="1" vertex="1">
          <mxGeometry x="1040" y="920" width="80" height="40" as="geometry" />
        </mxCell>
        <mxCell id="fEvvzusc2KXiNzdywX1L-150" style="edgeStyle=orthogonalEdgeStyle;shape=connector;rounded=0;jumpStyle=gap;orthogonalLoop=1;jettySize=auto;html=1;exitX=1;exitY=0.5;exitDx=0;exitDy=0;entryX=0;entryY=0.5;entryDx=0;entryDy=0;labelBackgroundColor=default;strokeColor=default;fontFamily=Helvetica;fontSize=11;fontColor=default;endArrow=classic;" parent="1" source="fEvvzusc2KXiNzdywX1L-141" target="fEvvzusc2KXiNzdywX1L-149" edge="1">
          <mxGeometry relative="1" as="geometry" />
        </mxCell>
        <mxCell id="fEvvzusc2KXiNzdywX1L-141" value="" style="ellipse;whiteSpace=wrap;html=1;fontSize=40;" parent="1" vertex="1">
          <mxGeometry x="1200" y="920" width="40" height="40" as="geometry" />
        </mxCell>
        <mxCell id="fEvvzusc2KXiNzdywX1L-143" value="Waiting++" style="rounded=0;whiteSpace=wrap;html=1;fillColor=#FFFFFF;strokeColor=#CC00CC;" parent="1" vertex="1">
          <mxGeometry x="1040" y="760" width="80" height="40" as="geometry" />
        </mxCell>
        <mxCell id="fEvvzusc2KXiNzdywX1L-148" value="" style="edgeStyle=orthogonalEdgeStyle;shape=connector;rounded=0;jumpStyle=gap;orthogonalLoop=1;jettySize=auto;html=1;exitX=1;exitY=0.5;exitDx=0;exitDy=0;entryX=0;entryY=0.5;entryDx=0;entryDy=0;labelBackgroundColor=default;strokeColor=default;fontFamily=Helvetica;fontSize=11;fontColor=default;endArrow=classic;" parent="1" source="fEvvzusc2KXiNzdywX1L-73" target="fEvvzusc2KXiNzdywX1L-147" edge="1">
          <mxGeometry relative="1" as="geometry">
            <mxPoint x="840" y="780" as="sourcePoint" />
            <mxPoint x="1040" y="780" as="targetPoint" />
          </mxGeometry>
        </mxCell>
        <mxCell id="fEvvzusc2KXiNzdywX1L-147" value="" style="ellipse;whiteSpace=wrap;html=1;fontSize=40;" parent="1" vertex="1">
          <mxGeometry x="920" y="760" width="40" height="40" as="geometry" />
        </mxCell>
        <mxCell id="fEvvzusc2KXiNzdywX1L-156" style="edgeStyle=orthogonalEdgeStyle;shape=connector;rounded=0;jumpStyle=gap;orthogonalLoop=1;jettySize=auto;html=1;entryX=0.5;entryY=1;entryDx=0;entryDy=0;labelBackgroundColor=default;strokeColor=default;fontFamily=Helvetica;fontSize=11;fontColor=default;endArrow=classic;strokeWidth=1;" parent="1" source="fEvvzusc2KXiNzdywX1L-149" target="fEvvzusc2KXiNzdywX1L-76" edge="1">
          <mxGeometry relative="1" as="geometry">
            <mxPoint x="1479.999999999949" y="940" as="targetPoint" />
            <Array as="points">
              <mxPoint x="1440" y="940" />
              <mxPoint x="1440" y="740" />
              <mxPoint x="1221" y="740" />
            </Array>
          </mxGeometry>
        </mxCell>
        <mxCell id="fEvvzusc2KXiNzdywX1L-149" value="Waiting--" style="rounded=0;whiteSpace=wrap;html=1;strokeColor=#CC00CC;" parent="1" vertex="1">
          <mxGeometry x="1320" y="920" width="80" height="40" as="geometry" />
        </mxCell>
        <mxCell id="fEvvzusc2KXiNzdywX1L-154" value="" style="edgeStyle=orthogonalEdgeStyle;rounded=0;orthogonalLoop=1;jettySize=auto;html=1;entryX=0;entryY=0.5;entryDx=0;entryDy=0;" parent="1" source="fEvvzusc2KXiNzdywX1L-78" target="fEvvzusc2KXiNzdywX1L-153" edge="1">
          <mxGeometry relative="1" as="geometry">
            <mxPoint x="1400" y="700" as="sourcePoint" />
            <mxPoint x="1630" y="700" as="targetPoint" />
            <Array as="points">
              <mxPoint x="1430" y="700" />
              <mxPoint x="1430" y="700" />
            </Array>
          </mxGeometry>
        </mxCell>
        <mxCell id="fEvvzusc2KXiNzdywX1L-153" value="" style="ellipse;whiteSpace=wrap;html=1;fontSize=40;" parent="1" vertex="1">
          <mxGeometry x="1480" y="680" width="40" height="40" as="geometry" />
        </mxCell>
        <mxCell id="fEvvzusc2KXiNzdywX1L-163" style="edgeStyle=orthogonalEdgeStyle;shape=connector;rounded=0;jumpStyle=gap;orthogonalLoop=1;jettySize=auto;html=1;entryX=0;entryY=0.5;entryDx=0;entryDy=0;labelBackgroundColor=default;strokeColor=#000000;fontFamily=Helvetica;fontSize=11;fontColor=default;endArrow=classic;dashed=1;strokeWidth=3;" parent="1" source="fEvvzusc2KXiNzdywX1L-160" target="fEvvzusc2KXiNzdywX1L-162" edge="1">
          <mxGeometry relative="1" as="geometry" />
        </mxCell>
        <mxCell id="fEvvzusc2KXiNzdywX1L-160" value="Count = 0" style="rounded=0;whiteSpace=wrap;html=1;" parent="1" vertex="1">
          <mxGeometry x="760" y="1000" width="80" height="40" as="geometry" />
        </mxCell>
        <mxCell id="fEvvzusc2KXiNzdywX1L-169" style="edgeStyle=orthogonalEdgeStyle;shape=connector;rounded=0;jumpStyle=gap;orthogonalLoop=1;jettySize=auto;html=1;exitX=1;exitY=0.5;exitDx=0;exitDy=0;entryX=0;entryY=0.5;entryDx=0;entryDy=0;labelBackgroundColor=default;strokeColor=#000000;fontFamily=Helvetica;fontSize=11;fontColor=default;endArrow=classic;dashed=1;strokeWidth=3;" parent="1" source="fEvvzusc2KXiNzdywX1L-161" target="fEvvzusc2KXiNzdywX1L-168" edge="1">
          <mxGeometry relative="1" as="geometry">
            <Array as="points">
              <mxPoint x="1140" y="1020" />
              <mxPoint x="1140" y="1020" />
            </Array>
          </mxGeometry>
        </mxCell>
        <mxCell id="fEvvzusc2KXiNzdywX1L-172" style="edgeStyle=orthogonalEdgeStyle;shape=connector;rounded=0;jumpStyle=gap;orthogonalLoop=1;jettySize=auto;html=1;exitX=1;exitY=0.25;exitDx=0;exitDy=0;labelBackgroundColor=default;strokeColor=#00CC00;fontFamily=Helvetica;fontSize=11;fontColor=default;endArrow=none;endFill=0;" parent="1" source="fEvvzusc2KXiNzdywX1L-161" edge="1">
          <mxGeometry relative="1" as="geometry">
            <mxPoint x="1160" y="850" as="targetPoint" />
          </mxGeometry>
        </mxCell>
        <mxCell id="fEvvzusc2KXiNzdywX1L-161" value="unlock(Lock)" style="rounded=0;whiteSpace=wrap;html=1;strokeColor=#00CC00;" parent="1" vertex="1">
          <mxGeometry x="1040" y="1000" width="80" height="40" as="geometry" />
        </mxCell>
        <mxCell id="fEvvzusc2KXiNzdywX1L-165" style="edgeStyle=orthogonalEdgeStyle;shape=connector;rounded=0;jumpStyle=gap;orthogonalLoop=1;jettySize=auto;html=1;exitX=1;exitY=0.5;exitDx=0;exitDy=0;labelBackgroundColor=default;strokeColor=#000000;fontFamily=Helvetica;fontSize=11;fontColor=default;endArrow=classic;dashed=1;strokeWidth=3;" parent="1" source="fEvvzusc2KXiNzdywX1L-162" target="fEvvzusc2KXiNzdywX1L-161" edge="1">
          <mxGeometry relative="1" as="geometry" />
        </mxCell>
        <mxCell id="fEvvzusc2KXiNzdywX1L-162" value="" style="ellipse;whiteSpace=wrap;html=1;fontSize=40;" parent="1" vertex="1">
          <mxGeometry x="920" y="1000" width="40" height="40" as="geometry" />
        </mxCell>
        <mxCell id="fEvvzusc2KXiNzdywX1L-170" style="edgeStyle=orthogonalEdgeStyle;shape=connector;rounded=0;jumpStyle=gap;orthogonalLoop=1;jettySize=auto;html=1;exitX=1;exitY=0.5;exitDx=0;exitDy=0;labelBackgroundColor=default;strokeColor=#000000;fontFamily=Helvetica;fontSize=11;fontColor=default;endArrow=classic;entryX=0;entryY=0.5;entryDx=0;entryDy=0;dashed=1;strokeWidth=3;" parent="1" source="fEvvzusc2KXiNzdywX1L-168" target="fEvvzusc2KXiNzdywX1L-114" edge="1">
          <mxGeometry relative="1" as="geometry">
            <mxPoint x="1340" y="1010" as="targetPoint" />
          </mxGeometry>
        </mxCell>
        <mxCell id="fEvvzusc2KXiNzdywX1L-168" value="" style="ellipse;whiteSpace=wrap;html=1;fontSize=40;" parent="1" vertex="1">
          <mxGeometry x="1200" y="1000" width="40" height="40" as="geometry" />
        </mxCell>
      </root>
    </mxGraphModel>
  </diagram>
</mxfile>
